# xmcd CD database file
#
# Track frame offsets:
#	150
#	28207
#	52550
#	79152
#	100707
#	127622
#	141477
#	165142
#	195895
#	219460
#
# Disc length: 3277 seconds
#
# Revision: 0
# Processed by: cddbd v1.5.1PL0 Copyright (c) Steve Scherf et al.
# Submitted via: CDex 1.51
#
DISCID=700ccb0a
DTITLE=Rondo's Blues Deluxe - Shack Pappy's
DYEAR=1990
DGENRE=Blues
TTITLE0=Shack Pappy's
TTITLE1=Sweet Sweet Whiskey No Mo'
TTITLE2=Welcome Back Heartbreak
TTITLE3=Blues Train
TTITLE4=Childhood Sweethearts
TTITLE5=Working Undercover
TTITLE6=Fever
TTITLE7=Black Night
TTITLE8=St. Louis Blues
TTITLE9=In My Room
EXTD=YEAR: 1990
EXTT0=
EXTT1=
EXTT2=
EXTT3=
EXTT4=
EXTT5=
EXTT6=
EXTT7=
EXTT8=
EXTT9=
PLAYORDER=
